HIERARCHY
ROOT Hips
{
	OFFSET 0.000000 35.082581 0.000000
	CHANNELS 6 Xposition Yposition Zposition Xrotation Yrotation Zrotation 
	JOINT Spine
	{
		OFFSET 0.000000 6.876099 0.125700
		CHANNELS 3 Xrotation Yrotation Zrotation
		JOINT Spine1
		{
			OFFSET 0.000000 5.730043 0.104720
			CHANNELS 3 Xrotation Yrotation Zrotation
			JOINT Spine1_split
			{
				OFFSET 0.000000 5.730043 0.104720
				CHANNELS 3 Xrotation Yrotation Zrotation
				JOINT Spine2
				{
					OFFSET 0.000000 5.730043 0.104720
					CHANNELS 3 Xrotation Yrotation Zrotation
					JOINT Neck
					{
						OFFSET 0.000000 10.314075 0.188496
						CHANNELS 3 Xrotation Yrotation Zrotation
						JOINT Head
						{
							OFFSET 0.000000 7.643700 -2.377400
							CHANNELS 3 Xrotation Yrotation Zrotation
							JOINT HeadTop_End
							{
								OFFSET 0.000000 43.788605 -13.619600
								CHANNELS 3 Xrotation Yrotation Zrotation
								End Site
								{
									OFFSET 0.000000 0.000000 0.000000
								}
							}
						}
					}
					JOINT LeftShoulder
					{
						OFFSET 2.196100 4.412489 0.087492
						CHANNELS 3 Xrotation Yrotation Zrotation
						JOINT LeftShoulder_split
						{
							OFFSET 2.196100 4.412489 0.087492
							CHANNELS 3 Xrotation Yrotation Zrotation
							JOINT LeftArm
							{
								OFFSET 8.771219 -2.981674 -0.026999
								CHANNELS 3 Xrotation Yrotation Zrotation
								JOINT LeftForeArm
								{
									OFFSET 8.512804 0.000000 -0.000000
									CHANNELS 3 Xrotation Yrotation Zrotation
									JOINT LeftHand
									{
										OFFSET 18.484802 0.000000 -0.000000
										CHANNELS 3 Xrotation Yrotation Zrotation
										JOINT LeftHandThumb1
										{
											OFFSET 2.499420 -1.158070 2.653252
											CHANNELS 3 Xrotation Yrotation Zrotation
											JOINT LeftHandThumb2
											{
												OFFSET 2.370079 -1.368366 1.368366
												CHANNELS 3 Xrotation Yrotation Zrotation
												JOINT LeftHandThumb3
												{
													OFFSET 2.676727 -1.545410 1.545409
													CHANNELS 3 Xrotation Yrotation Zrotation
													JOINT LeftHandThumb4
													{
														OFFSET 1.692226 -0.977005 0.977007
														CHANNELS 3 Xrotation Yrotation Zrotation
														End Site
														{
															OFFSET 0.000000 0.000000 0.000000
														}
													}
												}
											}
										}
										JOINT LeftHandIndex1
										{
											OFFSET 7.924831 -0.457527 2.345128
											CHANNELS 3 Xrotation Yrotation Zrotation
											JOINT LeftHandIndex2
											{
												OFFSET 3.643303 0.000000 0.000000
												CHANNELS 3 Xrotation Yrotation Zrotation
												JOINT LeftHandIndex3
												{
													OFFSET 3.810799 0.000000 0.000000
													CHANNELS 3 Xrotation Yrotation Zrotation
													JOINT LeftHandIndex4
													{
														OFFSET 2.403702 0.000000 0.000000
														CHANNELS 3 Xrotation Yrotation Zrotation
														End Site
														{
															OFFSET 0.000000 0.000000 0.000000
														}
													}
												}
											}
										}
										JOINT LeftHandMiddle1
										{
											OFFSET 8.563995 0.000000 -0.000000
											CHANNELS 3 Xrotation Yrotation Zrotation
											JOINT LeftHandMiddle2
											{
												OFFSET 3.861618 0.000000 0.000000
												CHANNELS 3 Xrotation Yrotation Zrotation
												JOINT LeftHandMiddle3
												{
													OFFSET 3.701603 0.000000 0.000000
													CHANNELS 3 Xrotation Yrotation Zrotation
													JOINT LeftHandMiddle4
													{
														OFFSET 2.322544 0.000000 0.000000
														CHANNELS 3 Xrotation Yrotation Zrotation
														End Site
														{
															OFFSET 0.000000 0.000000 0.000000
														}
													}
												}
											}
										}
										JOINT LeftHandRing1
										{
											OFFSET 8.426460 -0.424637 -3.286992
											CHANNELS 3 Xrotation Yrotation Zrotation
											JOINT LeftHandRing2
											{
												OFFSET 3.126408 0.000000 0.000000
												CHANNELS 3 Xrotation Yrotation Zrotation
												JOINT LeftHandRing3
												{
													OFFSET 3.085026 0.000000 0.000000
													CHANNELS 3 Xrotation Yrotation Zrotation
													JOINT LeftHandRing4
													{
														OFFSET 1.644005 0.000000 0.000000
														CHANNELS 3 Xrotation Yrotation Zrotation
														End Site
														{
															OFFSET 0.000000 0.000000 0.000000
														}
													}
												}
											}
										}
									}
								}
							}
						}
					}
					JOINT RightShoulder
					{
						OFFSET -2.196100 4.412496 0.070690
						CHANNELS 3 Xrotation Yrotation Zrotation
						JOINT RightShoulder_split
						{
							OFFSET -2.196100 4.412496 0.070690
							CHANNELS 3 Xrotation Yrotation Zrotation
							JOINT RightArm
							{
								OFFSET -8.771282 -2.981682 -0.094208
								CHANNELS 3 Xrotation Yrotation Zrotation
								JOINT RightForeArm
								{
									OFFSET -8.494598 0.000000 0.000000
									CHANNELS 3 Xrotation Yrotation Zrotation
									JOINT RightHand
									{
										OFFSET -18.483803 0.000000 0.000001
										CHANNELS 3 Xrotation Yrotation Zrotation
										JOINT RightHandThumb1
										{
											OFFSET -2.527351 -1.008072 2.575253
											CHANNELS 3 Xrotation Yrotation Zrotation
											JOINT RightHandThumb2
											{
												OFFSET -2.321518 -1.340328 1.340329
												CHANNELS 3 Xrotation Yrotation Zrotation
												JOINT RightHandThumb3
												{
													OFFSET -2.657753 -1.534454 1.534455
													CHANNELS 3 Xrotation Yrotation Zrotation
													JOINT RightHandThumb4
													{
														OFFSET -1.807510 -1.043568 1.043567
														CHANNELS 3 Xrotation Yrotation Zrotation
														End Site
														{
															OFFSET 0.000000 0.000000 0.000000
														}
													}
												}
											}
										}
										JOINT RightHandIndex1
										{
											OFFSET -8.811420 0.015533 2.887987
											CHANNELS 3 Xrotation Yrotation Zrotation
											JOINT RightHandIndex2
											{
												OFFSET -3.537502 0.000000 0.000000
												CHANNELS 3 Xrotation Yrotation Zrotation
												JOINT RightHandIndex3
												{
													OFFSET -3.356201 0.000000 0.000000
													CHANNELS 3 Xrotation Yrotation Zrotation
													JOINT RightHandIndex4
													{
														OFFSET -1.933098 0.000000 0.000000
														CHANNELS 3 Xrotation Yrotation Zrotation
														End Site
														{
															OFFSET 0.000000 0.000000 0.000000
														}
													}
												}
											}
										}
										JOINT RightHandMiddle1
										{
											OFFSET -8.178135 0.000000 0.000000
											CHANNELS 3 Xrotation Yrotation Zrotation
											JOINT RightHandMiddle2
											{
												OFFSET -3.901302 0.000000 0.000000
												CHANNELS 3 Xrotation Yrotation Zrotation
												JOINT RightHandMiddle3
												{
													OFFSET -3.909599 0.000000 0.000000
													CHANNELS 3 Xrotation Yrotation Zrotation
													JOINT RightHandMiddle4
													{
														OFFSET -2.376003 0.000000 0.000000
														CHANNELS 3 Xrotation Yrotation Zrotation
														End Site
														{
															OFFSET 0.000000 0.000000 0.000000
														}
													}
												}
											}
										}
										JOINT RightHandRing1
										{
											OFFSET -7.559013 0.014137 -2.865403
											CHANNELS 3 Xrotation Yrotation Zrotation
											JOINT RightHandRing2
											{
												OFFSET -3.449306 0.000000 0.000000
												CHANNELS 3 Xrotation Yrotation Zrotation
												JOINT RightHandRing3
												{
													OFFSET -3.362106 0.000000 0.000000
													CHANNELS 3 Xrotation Yrotation Zrotation
													JOINT RightHandRing4
													{
														OFFSET -2.076401 0.000000 0.000000
														CHANNELS 3 Xrotation Yrotation Zrotation
														End Site
														{
															OFFSET 0.000000 0.000000 0.000000
														}
													}
												}
											}
										}
									}
								}
							}
						}
					}
				}
			}
		}
	}
	JOINT LeftUpLeg
	{
		OFFSET 10.205400 -3.823500 0.155100
		CHANNELS 3 Xrotation Yrotation Zrotation
		JOINT LeftLeg
		{
			OFFSET 0.708757 -12.982077 0.567790
			CHANNELS 3 Xrotation Yrotation Zrotation
			JOINT LeftFoot
			{
				OFFSET -0.708756 -10.717838 -2.184338
				CHANNELS 3 Xrotation Yrotation Zrotation
				JOINT LeftToeBase
				{
					OFFSET 0.108149 -7.191104 7.560241
					CHANNELS 3 Xrotation Yrotation Zrotation
					JOINT LeftToe_End
					{
						OFFSET 0.070230 0.081724 4.490308
						CHANNELS 3 Xrotation Yrotation Zrotation
						End Site
						{
							OFFSET 0.000000 0.000000 0.000000
						}
					}
				}
			}
		}
	}
	JOINT RightUpLeg
	{
		OFFSET -10.205400 -3.823500 0.005500
		CHANNELS 3 Xrotation Yrotation Zrotation
		JOINT RightLeg
		{
			OFFSET -0.708756 -12.982134 0.610632
			CHANNELS 3 Xrotation Yrotation Zrotation
			JOINT RightFoot
			{
				OFFSET 0.708754 -10.717769 -1.945823
				CHANNELS 3 Xrotation Yrotation Zrotation
				JOINT RightToeBase
				{
					OFFSET -0.108140 -7.191069 7.372968
					CHANNELS 3 Xrotation Yrotation Zrotation
					JOINT RightToe_End
					{
						OFFSET -0.070227 0.081735 4.479403
						CHANNELS 3 Xrotation Yrotation Zrotation
						End Site
						{
							OFFSET 0.000000 0.000000 0.000000
						}
					}
				}
			}
		}
	}
}
MOTION
Frames: 4
Frame Time: 0.016667
-1.784033 28.729090 30.528713 31.827104 13.719494 -8.279253 4.712437 0.142747 3.263691 9.441405 0.085015 4.172060 0.000000 0.000000 0.000000 9.441418 0.085016 4.172061 -7.147131 0.629935 -0.577765 -4.884819 0.126169 2.445930 0.000001 0.000001 0.000001 3.345506 -20.374553 5.851174 0.000000 0.000000 0.000000 -45.404161 -21.632025 -43.071750 105.129602 -62.566220 117.849832 32.351693 22.518568 68.310552 -22.329932 -10.232685 -0.665778 -13.008754 33.638805 5.466846 -0.000005 -0.000001 -0.000001 -0.000007 -0.000002 0.000001 -3.249115 -3.487661 -45.487701 -11.741052 -5.662305 -117.786312 0.000001 -0.000001 -0.000010 0.000001 0.000000 0.000000 -1.607305 -1.437544 -44.852838 -8.864459 -8.229445 -108.221649 -0.000003 0.000000 -0.000002 0.000000 -0.000000 0.000001 1.621456 4.447398 -42.845240 -1.055347 -8.990356 -99.406320 -0.000007 -0.000002 -0.000002 -0.000001 -0.000000 -0.000002 1.512616 10.066763 -3.702985 0.000000 0.000000 0.000000 -39.856862 5.966720 40.669767 110.736621 51.476738 -131.206076 41.008565 -31.696131 -49.398800 -31.480581 10.386554 -14.209253 -13.008672 -33.638832 -5.466780 0.000020 0.000006 -0.000007 0.000002 0.000000 0.000005 -3.485984 1.851573 32.874414 -8.875850 5.007747 106.188166 0.000006 0.000002 0.000000 -0.000000 -0.000000 -0.000001 -2.051667 0.230825 37.937101 -6.364965 7.372388 96.576901 -0.000003 0.000003 0.000002 -0.000000 -0.000000 -0.000003 2.774043 -3.553476 41.587031 -1.339042 10.439970 83.973160 -0.000007 0.000012 -0.000003 0.000000 0.000000 0.000002 10.795677 9.182265 -0.916274 5.321029 21.721839 5.138218 -24.242950 2.435193 -26.964369 -22.403461 -9.239175 5.654031 0.000001 0.000002 0.000001 -81.589171 -12.646702 0.491636 77.116285 -33.624410 -2.791977 -19.275683 -1.146773 1.014648 -8.094828 8.380851 6.746371 0.000000 0.000001 -0.000000 
-1.790227 28.680548 30.590551 32.034642 13.718382 -8.321494 4.631446 0.144761 3.262999 9.279514 0.081829 4.174583 0.000000 0.000000 0.000000 9.279506 0.081823 4.174585 -7.203870 0.623597 -0.573727 -4.979432 0.067745 2.427053 0.000002 0.000001 0.000000 3.403895 -20.465922 6.046236 0.000000 0.000000 0.000000 -45.550771 -21.701379 -42.949240 104.319392 -62.881092 117.063213 32.170761 22.448993 68.336248 -22.329948 -10.232700 -0.665768 -13.008762 33.638798 5.466834 -0.000010 -0.000011 -0.000000 0.000001 -0.000003 -0.000001 -3.249122 -3.487655 -45.487701 -11.741051 -5.662304 -117.786284 0.000000 -0.000001 -0.000011 0.000001 -0.000000 0.000000 -1.607318 -1.437546 -44.852824 -8.864471 -8.229459 -108.221649 -0.000003 0.000000 -0.000002 -0.000001 0.000000 -0.000001 1.621464 4.447401 -42.845237 -1.055349 -8.990340 -99.406314 -0.000006 -0.000002 0.000000 0.000001 -0.000000 -0.000002 1.519955 10.005078 -3.875206 0.000000 0.000000 0.000000 -40.127266 6.220011 40.746747 110.235292 51.780480 -130.620947 41.065805 -31.593993 -49.231980 -31.480595 10.386579 -14.209228 -13.008701 -33.638852 -5.466820 0.000016 0.000006 -0.000007 0.000003 -0.000004 0.000001 -3.485990 1.851593 32.874442 -8.875855 5.007741 106.188138 0.000006 0.000002 0.000002 -0.000000 0.000000 -0.000001 -2.051673 0.230821 37.937118 -6.364934 7.372395 96.576894 -0.000002 0.000003 0.000001 -0.000000 -0.000000 -0.000001 2.774043 -3.553470 41.587055 -1.339045 10.439978 83.973173 -0.000008 0.000011 -0.000000 -0.000000 -0.000001 0.000001 10.446191 9.204914 -0.759172 5.985835 21.702129 5.033151 -24.429640 2.446247 -27.188878 -22.685153 -9.329182 5.696753 -0.000000 -0.000000 -0.000000 -81.968267 -12.780162 0.453096 77.596318 -33.642192 -2.818457 -19.431468 -1.157247 0.978352 -8.381842 8.330551 6.868825 -0.000000 -0.000001 0.000000 
-1.795521 28.632612 30.651754 32.248581 13.722226 -8.367193 4.549545 0.147124 3.264475 9.115772 0.078891 4.180705 0.000000 0.000000 0.000000 9.115793 0.078889 4.180705 -7.260784 0.622992 -0.571326 -5.077529 0.011019 2.406298 -0.000002 0.000000 -0.000000 3.462207 -20.556781 6.238198 0.000000 0.000000 0.000000 -45.726156 -21.783025 -42.867282 103.432410 -63.200396 116.209057 32.017984 22.348582 68.350755 -22.329934 -10.232708 -0.665783 -13.008766 33.638794 5.466849 -0.000002 -0.000009 -0.000000 -0.000002 -0.000002 0.000003 -3.249119 -3.487664 -45.487718 -11.741054 -5.662319 -117.786284 0.000001 -0.000001 -0.000010 0.000001 0.000000 0.000000 -1.607308 -1.437547 -44.852821 -8.864477 -8.229458 -108.221629 -0.000001 -0.000000 -0.000001 0.000001 0.000001 0.000000 1.621459 4.447395 -42.845251 -1.055321 -8.990338 -99.406307 -0.000006 -0.000002 -0.000002 -0.000001 -0.000000 -0.000001 1.527272 9.940871 -4.054028 0.000000 0.000000 0.000000 -40.408400 6.474586 40.823634 109.704060 52.094990 -130.008184 41.123845 -31.479556 -49.069998 -31.480591 10.386555 -14.209233 -13.008705 -33.638825 -5.466794 0.000021 0.000006 -0.000007 0.000000 0.000001 0.000002 -3.485980 1.851584 32.874421 -8.875856 5.007750 106.188152 0.000005 0.000002 -0.000000 0.000000 -0.000000 -0.000003 -2.051665 0.230821 37.937111 -6.364962 7.372384 96.576901 -0.000003 0.000003 0.000001 -0.000001 -0.000000 -0.000002 2.774052 -3.553481 41.587058 -1.339040 10.439980 83.973153 -0.000007 0.000012 -0.000001 -0.000000 0.000000 0.000002 10.092315 9.225539 -0.603034 6.638411 21.682210 4.929421 -24.603188 2.455716 -27.412643 -22.966566 -9.428000 5.735917 -0.000000 0.000003 0.000000 -82.340704 -12.914832 0.404786 78.063994 -33.651550 -2.843467 -19.595919 -1.171348 0.953201 -8.649962 8.281913 6.979468 0.000000 -0.000000 0.000000 
-1.800082 28.584684 30.712790 32.464791 13.725474 -8.412959 4.467181 0.149093 3.265983 8.951158 0.075001 4.186379 0.000000 0.000000 0.000000 8.951173 0.075007 4.186377 -7.318555 0.628101 -0.570275 -5.178905 -0.043942 2.385306 -0.000002 0.000000 -0.000001 3.520943 -20.647271 6.429802 0.000000 0.000000 0.000000 -45.923094 -21.869207 -42.821670 102.479332 -63.518328 115.301270 31.897315 22.218542 68.346466 -22.329934 -10.232701 -0.665769 -13.008763 33.638798 5.466836 -0.000008 -0.000007 -0.000005 -0.000001 -0.000004 0.000001 -3.249105 -3.487662 -45.487694 -11.741048 -5.662314 -117.786312 0.000003 -0.000001 -0.000010 0.000002 0.000000 -0.000000 -1.607304 -1.437542 -44.852835 -8.864465 -8.229460 -108.221622 0.000001 -0.000001 -0.000003 0.000001 0.000000 0.000000 1.621459 4.447394 -42.845227 -1.055312 -8.990342 -99.406320 -0.000005 -0.000002 -0.000004 0.000000 0.000000 -0.000001 1.534767 9.876792 -4.238359 0.000000 0.000000 0.000000 -40.697057 6.729569 40.910443 109.140706 52.419011 -129.364152 41.180549 -31.352044 -48.919710 -31.480574 10.386575 -14.209228 -13.008716 -33.638842 -5.466830 0.000015 0.000005 -0.000009 0.000000 -0.000006 0.000003 -3.485986 1.851584 32.874431 -8.875858 5.007750 106.188145 0.000006 0.000002 0.000004 0.000001 -0.000000 0.000000 -2.051669 0.230820 37.937104 -6.364952 7.372385 96.576901 -0.000003 0.000003 0.000000 -0.000000 -0.000000 -0.000004 2.774042 -3.553475 41.587055 -1.339029 10.439967 83.973167 -0.000007 0.000012 -0.000001 0.000001 0.000000 -0.000001 9.743140 9.244010 -0.450504 7.274910 21.662310 4.827491 -24.764092 2.463571 -27.634959 -23.250529 -9.529916 5.773314 -0.000000 0.000000 0.000001 -82.711296 -13.048127 0.346155 78.526241 -33.638002 -2.866194 -19.761453 -1.186663 0.933789 -8.906071 8.223795 7.077661 0.000000 0.000000 -0.000000 
